<svg xmlns="http://www.w3.org/2000/svg" version="1.1" xmlns:xlink="http://www.w3.org/1999/xlink" xmlns:svgjs="http://svgjs.com/svgjs" width="1440" height="560" preserveAspectRatio="none" viewBox="0 0 1440 560"><g mask="url(&quot;#SvgjsMask1001&quot;)" fill="none"><rect width="1440" height="560" x="0" y="0" fill="rgba(129, 192, 87, 1)"></rect><path d="M0,361.077C66.33,351.756,121.661,313.201,178.029,277.018C234.428,240.816,296.114,208.677,328.675,150.101C362.484,89.279,368.195,17.316,360.858,-51.883C353.327,-122.915,340.726,-201.777,286.443,-248.205C233.246,-293.704,152.754,-272.137,84.61,-288.156C21.35,-303.027,-35.906,-352.207,-99.52,-338.935C-164.231,-325.435,-205.987,-265.857,-251.602,-218.014C-299.434,-167.845,-358.909,-121.568,-371.714,-53.444C-384.673,15.498,-346.71,81.277,-320.056,146.165C-292.353,213.606,-273.905,291.376,-213.376,332.02C-152.551,372.863,-72.553,371.273,0,361.077" fill="#66a23d"></path><path d="M1440 1218.012C1561.695 1229.643 1678.789 1153.255 1766.6019999999999 1068.202 1846.4189999999999 990.894 1872.3899999999999 878.031 1901.681 770.843 1926.921 678.48 1918.521 585.9 1924.513 490.33799999999997 1932.304 366.089 2017.5810000000001 223.918 1942.189 124.85000000000002 1867.9479999999999 27.293999999999983 1710.58 70.469 1589.655 50.321000000000026 1484.983 32.88099999999997 1379.691-21.384000000000015 1279.824 14.490999999999985 1181.305 49.882000000000005 1134.128 156.51100000000002 1068.045 237.699 1004.212 316.123 937.2819999999999 388.595 899.107 482.231 851.776 598.326 767.396 729.361 821.485 842.466 875.729 955.895 1043.726 944.1279999999999 1151.199 1009.383 1254.809 1072.292 1319.337 1206.479 1440 1218.012" fill="#9fcf80"></path></g><defs><mask id="SvgjsMask1001"><rect width="1440" height="560" fill="#ffffff"></rect></mask></defs></svg>