<svg xmlns="http://www.w3.org/2000/svg" version="1.1" xmlns:xlink="http://www.w3.org/1999/xlink" xmlns:svgjs="http://svgjs.com/svgjs" width="1440" height="450" preserveAspectRatio="none" viewBox="0 0 1440 450"><g mask="url(&quot;#SvgjsMask1540&quot;)" fill="none"><rect width="1440" height="450" x="0" y="0" fill="rgba(129, 192, 87, 1)"></rect><path d="M27 450L477 0L724.5 0L274.5 450z" fill="url(#SvgjsLinearGradient1541)"></path><path d="M324.8 450L774.8 0L1044.8 0L594.8 450z" fill="url(#SvgjsLinearGradient1541)"></path><path d="M680.6 450L1130.6 0L1315.1 0L865.1 450z" fill="url(#SvgjsLinearGradient1541)"></path><path d="M1407 450L957 0L849 0L1299 450z" fill="url(#SvgjsLinearGradient1542)"></path><path d="M1121.2 450L671.2 0L507.70000000000005 0L957.7 450z" fill="url(#SvgjsLinearGradient1542)"></path><path d="M752.4 450L302.4 0L69.89999999999998 0L519.9 450z" fill="url(#SvgjsLinearGradient1542)"></path><path d="M1116.2045918273757 450L1440 126.2045918273758L1440 450z" fill="url(#SvgjsLinearGradient1541)"></path><path d="M0 450L323.7954081726242 450L 0 126.2045918273758z" fill="url(#SvgjsLinearGradient1542)"></path></g><defs><mask id="SvgjsMask1540"><rect width="1440" height="450" fill="#ffffff"></rect></mask><linearGradient x1="0%" y1="100%" x2="100%" y2="0%" id="SvgjsLinearGradient1541"><stop stop-color="rgba(100, 179, 46, 1)" offset="0"></stop><stop stop-opacity="0" stop-color="rgba(100, 179, 46, 1)" offset="0.66"></stop></linearGradient><linearGradient x1="100%" y1="100%" x2="0%" y2="0%" id="SvgjsLinearGradient1542"><stop stop-color="rgba(100, 179, 46, 1)" offset="0"></stop><stop stop-opacity="0" stop-color="rgba(100, 179, 46, 1)" offset="0.66"></stop></linearGradient></defs></svg>